# File created by Blade
# Date/Time:  Thu Jan 22 19:13:21 2015
#---------------------------------------------------------
:version 1.10
:name HOM
:units
  mass 1.0
  length 1.000000
  angle deg
:documentation
     Acclaim Skeleton File
:root
   axis xyz
   order TX TY TZ RX RY RZ
   position 0.000000 0.000000 0.000000
   orientation 0 0 0
:bonedata
   begin
      id 1
      name RightUpLeg_dum
      direction -1.000000 0.000000 0.000000
      length 4.478084
      axis 0.0 0.0 0.0 xyz
   end
   begin
      id 2
      name LeftUpLeg_dum
      direction 1.000000 0.000000 0.000000
      length 4.478084
      axis 0.0 0.0 0.0 xyz
   end
   begin
      id 3
      name Spine_dum
      direction 0.000000 1.000000 0.000000
      length 6.068208
      axis 0.0 0.0 0.0 xyz
   end
   begin
      id 4
      name RightUpLeg
      direction 0.000000 -1.000000 0.000000
      length 16.405774
      axis 0.0 0.0 0.0 xyz
      dof rx ry rz
   end
   begin
      id 5
      name RightLeg
      direction 0.000000 -1.000000 0.000000
      length 14.644143
      axis 0.0 0.0 0.0 xyz
      dof rx ry rz
   end
   begin
      id 6
      name RightFoot
      direction 0.000000 -0.258819 0.965926
      length 5.806150
      axis 15.0 0.0 0.0 xyz
      dof rx ry rz
   end
   begin
      id 7
      name RightToeBase
      direction 0.000000 0.000000 1.000000
      length 2.952750
      axis 0.0 0.0 0.0 xyz
      dof rx ry rz
   end
   begin
      id 8
      name LeftUpLeg
      direction 0.000000 -1.000000 0.000000
      length 16.405774
      axis 0.0 0.0 0.0 xyz
      dof rx ry rz
   end
   begin
      id 9
      name LeftLeg
      direction 0.000000 -1.000000 0.000000
      length 14.644143
      axis 0.0 0.0 0.0 xyz
      dof rx ry rz
   end
   begin
      id 10
      name LeftFoot
      direction 0.000000 -0.258819 0.965926
      length 5.806150
      axis 15.0 0.0 0.0 xyz
      dof rx ry rz
   end
   begin
      id 11
      name LeftToeBase
      direction 0.000000 0.000000 1.000000
      length 2.952750
      axis 0.0 0.0 0.0 xyz
      dof rx ry rz
   end
   begin
      id 12
      name Spine
      direction 0.000000 1.000000 0.000000
      length 0.000000
      axis 0.0 0.0 0.0 xyz
      dof rx ry rz
   end
   begin
      id 13
      name Spine_dum1
      direction 0.000000 1.000000 0.000000
      length 10.013923
      axis 0.0 0.0 0.0 xyz
   end
   begin
      id 14
      name Spine_dum2
      direction 0.000000 1.000000 0.000000
      length 10.013923
      axis 0.0 0.0 0.0 xyz
   end
   begin
      id 15
      name Spine_dum3
      direction 0.000000 1.000000 0.000000
      length 15.777476
      axis 0.0 0.0 0.0 xyz
   end
   begin
      id 16
      name RightShoulder
      direction -1.000000 0.000000 0.000000
      length 7.190220
      axis 0.0 0.0 90.0 xyz
      dof rx ry rz
   end
   begin
      id 17
      name RightArm
      direction -1.000000 0.000000 0.000000
      length 10.177469
      axis 0.0 0.0 90.0 xyz
      dof rx ry rz
   end
   begin
      id 18
      name RightForeArm
      direction -1.000000 0.000000 0.000000
      length 8.392114
      axis 0.0 0.0 90.0 xyz
      dof ry rz rx
   end
   begin
      id 19
      name RightHand
      direction -1.000000 0.000000 0.000000
      length 0.000000
      axis 0.0 0.0 90.0 xyz
      dof rx ry rz
   end
   begin
      id 20
      name RightHand_dum1
      direction -1.000000 0.000000 0.000000
      length 3.937000
      axis 0.0 0.0 90.0 xyz
   end
   begin
      id 21
      name RightHand_dum2
      direction 0.000000 0.000000 0.000000
      length 0.000000
      axis 0.0 0.0 90.0 xyz
   end
   begin
      id 22
      name RightHandThumb1
      direction 0.000000 0.000000 1.000000
      length 3.937000
      axis 0.0 0.0 90.0 xyz
      dof rx rz ry
   end
   begin
      id 23
      name LeftShoulder
      direction 1.000000 0.000000 0.000000
      length 7.190220
      axis 0.0 0.0 -90.0 xyz
      dof rx ry rz
   end
   begin
      id 24
      name LeftArm
      direction 1.000000 0.000000 0.000000
      length 10.177469
      axis 0.0 0.0 -90.0 xyz
      dof rx ry rz
   end
   begin
      id 25
      name LeftForeArm
      direction 1.000000 0.000000 0.000000
      length 8.392114
      axis 0.0 0.0 -90.0 xyz
      dof ry rz rx
   end
   begin
      id 26
      name LeftHand
      direction 1.000000 0.000000 0.000000
      length 0.000000
      axis 0.0 0.0 -90.0 xyz
      dof rx ry rz
   end
   begin
      id 27
      name LeftHand_dum1
      direction 1.000000 0.000000 0.000000
      length 3.937000
      axis 0.0 0.0 -90.0 xyz
   end
   begin
      id 28
      name LeftHand_dum2
      direction 0.000000 0.000000 0.000000
      length 0.000000
      axis 0.0 0.0 -90.0 xyz
   end
   begin
      id 29
      name LeftHandThumb1
      direction 0.000000 0.000000 1.000000
      length 3.937000
      axis 0.0 0.0 -90.0 xyz
      dof rx rz ry
   end
   begin
      id 30
      name Head
      direction 0.000000 1.000000 0.000000
      length 4.527550
      axis 0.0 0.0 0.0 xyz
      dof rx ry rz
   end
:hierarchy
   begin
      root RightUpLeg_dum LeftUpLeg_dum Spine_dum
      RightUpLeg_dum RightUpLeg
      LeftUpLeg_dum LeftUpLeg
      Spine_dum Spine
      RightUpLeg RightLeg
      RightLeg RightFoot
      RightFoot RightToeBase
      LeftUpLeg LeftLeg
      LeftLeg LeftFoot
      LeftFoot LeftToeBase
      Spine Spine_dum1 Spine_dum2 Spine_dum3
      Spine_dum1 RightShoulder
      Spine_dum2 LeftShoulder
      Spine_dum3 Head
      RightShoulder RightArm
      RightArm RightForeArm
      RightForeArm RightHand
      RightHand RightHand_dum1 RightHand_dum2
      RightHand_dum2 RightHandThumb1
      LeftShoulder LeftArm
      LeftArm LeftForeArm
      LeftForeArm LeftHand
      LeftHand LeftHand_dum1 LeftHand_dum2
      LeftHand_dum2 LeftHandThumb1
   end

# File created by Blade
# Date/Time:  Thu Jan 22 19:13:14 2015
# Frame Rate: 120.000 fps
#------------------------------------------------------
:FULLY-SPECIFIED
:DEGREES
1
root -0.919540 33.107416 -1.562604 9.122280 -1.449799 2.519370
RightUpLeg -2.587790 -7.124048 -3.178534
RightLeg -1.170935 -0.000000 0.000000
RightFoot -10.980167 -3.601140 4.753054
RightToeBase 5.943029 -0.000000 -0.000000
LeftUpLeg -3.625040 4.083141 3.961772
LeftLeg 1.277576 -0.000000 -0.000000
LeftFoot -9.500821 0.344638 -16.169325
LeftToeBase 8.108900 -0.000000 -0.000000
Spine -9.276465 -2.124772 -2.027547
RightShoulder -19.037329 -11.328485 -26.829549
RightArm 20.275145 25.331676 35.184018
RightForeArm -13.293581 -0.000000 6.959080
RightHand 11.052494 -0.000000 13.794380
RightHandThumb1 -24.326973 -0.000000 -32.862282
LeftShoulder -23.116803 7.016882 29.893222
LeftArm 17.361049 -25.286317 -33.396258
LeftForeArm 26.156541 0.000000 -1.987932
LeftHand -3.532713 0.000000 -11.861083
LeftHandThumb1 -26.253704 0.000000 33.147579
Head -6.983402 5.200916 2.451000
2
root -0.918307 33.107225 -1.560518 9.124168 -1.428979 2.530552
RightUpLeg -2.578803 -7.132846 -3.189363
RightLeg -1.175989 -0.000000 0.000000
RightFoot -10.985336 -3.618098 4.747317
RightToeBase 5.875451 -0.000000 -0.000000
LeftUpLeg -3.616207 4.084906 3.949799
LeftLeg 1.252170 -0.000000 -0.000000
LeftFoot -9.479567 0.339816 -16.151587
LeftToeBase 8.135178 -0.000000 -0.000000
Spine -9.286794 -2.129039 -2.037175
RightShoulder -19.030070 -11.358284 -26.836010
RightArm 20.271243 25.265295 35.091810
RightForeArm -13.410921 0.000000 6.959066
RightHand 11.009474 -0.000000 14.037730
RightHandThumb1 -24.326973 -0.000000 -32.862282
LeftShoulder -23.122816 7.032002 29.891762
LeftArm 17.402288 -25.222169 -33.366505
LeftForeArm 26.169030 0.000000 -1.991273
LeftHand -3.522558 -0.000000 -12.099950
LeftHandThumb1 -26.253704 0.000000 33.147579
Head -6.994454 5.183778 2.457985
3
root -0.917182 33.107021 -1.557766 9.122821 -1.410290 2.538774
RightUpLeg -2.567466 -7.152323 -3.196152
RightLeg -1.178956 -0.000000 0.000000
RightFoot -11.002183 -3.620964 4.766029
RightToeBase 5.889708 -0.000000 -0.000000
LeftUpLeg -3.596420 4.085177 3.942181
LeftLeg 1.213420 -0.000000 -0.000000
LeftFoot -9.449625 0.320581 -16.159559
LeftToeBase 8.101109 -0.000000 -0.000000
Spine -9.298491 -2.130557 -2.039725
RightShoulder -19.008311 -11.345734 -26.858358
RightArm 20.226779 25.185177 34.980155
RightForeArm -13.496353 -0.000000 6.933495
RightHand 11.055117 0.000000 14.258891
RightHandThumb1 -24.326973 -0.000000 -32.862282
LeftShoulder -23.102583 7.016021 29.891498
LeftArm 17.375513 -25.064230 -33.280172
LeftForeArm 26.204998 -0.000000 -1.963134
LeftHand -3.354939 0.000000 -12.303282
LeftHandThumb1 -26.253704 0.000000 33.147579
Head -7.004118 5.168526 2.447254
4
root -0.918237 33.106926 -1.554577 9.122761 -1.397247 2.530832
RightUpLeg -2.557722 -7.172846 -3.183558
RightLeg -1.187614 -0.000000 0.000000
RightFoot -10.966091 -3.609934 4.689743
RightToeBase 5.789831 -0.000000 -0.000000
LeftUpLeg -3.568938 4.095257 3.955102
LeftLeg 1.162491 -0.000000 -0.000000
LeftFoot -9.421743 0.300439 -16.170118
LeftToeBase 8.129554 -0.000000 -0.000000
Spine -9.312194 -2.116396 -2.035646
RightShoulder -19.000731 -11.344354 -26.874286
RightArm 20.187933 25.130201 34.880094
RightForeArm -13.632018 0.000000 6.917885
RightHand 11.038506 -0.000000 14.418101
RightHandThumb1 -24.326973 -0.000000 -32.862282
LeftShoulder -23.086489 7.044363 29.884199
LeftArm 17.400119 -24.928623 -33.216531
LeftForeArm 26.240646 0.000000 -1.965095
LeftHand -3.249766 0.000000 -12.384785
LeftHandThumb1 -26.253704 0.000000 33.147579
Head -7.009563 5.150867 2.445378
5
root -0.917711 33.106766 -1.550730 9.115829 -1.381656 2.534447
RightUpLeg -2.543247 -7.168698 -3.187207
RightLeg -1.182691 -0.000000 0.000000
RightFoot -10.967891 -3.642145 4.682434
RightToeBase 5.710910 -0.000000 -0.000000
LeftUpLeg -3.532665 4.086455 3.954416
LeftLeg 1.107793 -0.000000 -0.000000
LeftFoot -9.392636 0.288772 -16.192936
LeftToeBase 8.143660 -0.000000 -0.000000
Spine -9.315044 -2.117504 -2.038762
RightShoulder -18.995640 -11.343132 -26.894794
RightArm 20.170486 25.089740 34.802116
RightForeArm -13.699768 0.000000 6.913764
RightHand 10.969533 0.000000 14.491050
RightHandThumb1 -24.326973 -0.000000 -32.862282
LeftShoulder -23.086621 7.036640 29.882196
LeftArm 17.409868 -24.767620 -33.144566
LeftForeArm 26.277924 -0.000000 -1.937477
LeftHand -3.297429 -0.000000 -12.505314
LeftHandThumb1 -26.253704 0.000000 33.147579
Head -7.022371 5.140221 2.447303
6
root -0.919446 33.106230 -1.548866 9.118333 -1.357285 2.531769
RightUpLeg -2.541428 -7.176576 -3.177642
RightLeg -1.175730 -0.000000 0.000000
RightFoot -10.981070 -3.660538 4.669214
RightToeBase 5.725764 -0.000000 -0.000000
LeftUpLeg -3.515777 4.088971 3.964690
LeftLeg 1.063331 -0.000000 -0.000000
LeftFoot -9.358128 0.261775 -16.193377
LeftToeBase 8.069869 -0.000000 -0.000000
Spine -9.321137 -2.121268 -2.042297
RightShoulder -19.002745 -11.339319 -26.909287
RightArm 20.155555 25.034435 34.726726
RightForeArm -13.780430 -0.000000 6.904757
RightHand 10.945866 -0.000000 14.515256
RightHandThumb1 -24.326973 -0.000000 -32.862282
LeftShoulder -23.082048 7.035309 29.879035
LeftArm 17.418578 -24.632383 -33.062251
LeftForeArm 26.327674 -0.000000 -1.940284
LeftHand -3.160058 0.000000 -12.554631
LeftHandThumb1 -26.253704 0.000000 33.147579
Head -7.046507 5.112890 2.451413
